# xmcd
#
# Track frame offsets:
#   150
#   23280
#   39016
#   53294
#   64344
#   78468
#   93982
#   107732
#   126413
#   142196
#   155965
#   168687
#   182411
#
# Disc length: 2760 seconds
#
# Revision: 0
# Processed by: cddbd v1.5.1PL2 Copyright (c) Steve Scherf et al.
# Submitted via: uFREEDB ActiveX Control 1.5
#
DISCID=a60ac60d
DTITLE=NO PANTANAL É ASSIM - CHALANA DE PRATA
DYEAR=1900
DGENRE=Alternative
TTITLE0=KM 11 - CHORA VIOLAO
TTITLE1=SOU ASSIM MESMO
TTITLE2=RIACHO DO NAVIO
TTITLE3=MERCEDITAS
TTITLE4=LUCERITO ALBA
TTITLE5=MEU VENENO
TTITLE6=A SAUDADE E UMA ESTRADA LONGA
TTITLE7=JAPONES TEM TRES FILHAS
TTITLE8=XOTE DO CHALANA
TTITLE9=A MATOGROSSENSE
TTITLE10=CANTO A NANDE PRETA
TTITLE11=ENTRE RIOS
TTITLE12=NO BALANÇO DA QUADRILHA
EXTD=GUILHERME RONDON, DINO ROCHA, CELITO ESPINDOLA, PAULO SIMOES
EXTT0=
EXTT1=
EXTT2=
EXTT3=
EXTT4=
EXTT5=
EXTT6=
EXTT7=
EXTT8=
EXTT9=
EXTT10=
EXTT11=
EXTT12=
PLAYORDER=
